HIERARCHY
ROOT hip
{
	OFFSET 0.000000 0.000000 0.000000 
	CHANNELS 6 Xposition Yposition Zposition Zrotation Yrotation Xrotation
	JOINT abdomen
	{
		OFFSET 0.000000 20.688101 -0.731520 
		CHANNELS 3 Zrotation Xrotation Yrotation
		JOINT chest
		{
			OFFSET 0.000000 11.704300 -0.487680 
			CHANNELS 3 Zrotation Xrotation Yrotation
			JOINT neck
			{
				OFFSET 0.000000 22.189400 -2.194560 
				CHANNELS 3 Zrotation Xrotation Yrotation
				JOINT head
				{
					OFFSET -0.243840 7.071330 1.219200 
					CHANNELS 3 Zrotation Xrotation Yrotation
					End Site
					{
						OFFSET 1.000000 0.000000 0.000000 
					}
				}
			}
			JOINT rCollar
			{
				OFFSET -2.682240 19.263399 -4.876800 
				CHANNELS 3 Zrotation Xrotation Yrotation
				JOINT rShldr
				{
					OFFSET -8.778240 -1.950730 1.463040 
					CHANNELS 3 Zrotation Xrotation Yrotation
					JOINT rForeArm
					{
						OFFSET -28.174200 -1.711500 0.487680 
						CHANNELS 3 Zrotation Xrotation Yrotation
						JOINT rHand
						{
							OFFSET -22.587900 0.773209 7.071360 
							CHANNELS 3 Zrotation Xrotation Yrotation
							JOINT rThumb1
							{
								OFFSET -1.219200 -0.487915 3.413760 
								CHANNELS 3 Zrotation Xrotation Yrotation
								JOINT rThumb2
								{
									OFFSET -3.370350 -0.524490 3.413760 
									CHANNELS 3 Zrotation Xrotation Yrotation
									End Site
									{
										OFFSET -1.782710 -1.182140 1.430490 
									}
								}
							}
							JOINT rIndex1
							{
								OFFSET -7.759470 0.938293 5.608320 
								CHANNELS 3 Zrotation Xrotation Yrotation
								JOINT rIndex2
								{
									OFFSET -2.540570 -0.884171 1.565380 
									CHANNELS 3 Zrotation Xrotation Yrotation
									End Site
									{
										OFFSET -1.625190 -0.234802 1.165020 
									}
								}
							}
							JOINT rMid1
							{
								OFFSET -8.247140 1.182130 3.413760 
								CHANNELS 3 Zrotation Xrotation Yrotation
								JOINT rMid2
								{
									OFFSET -3.101650 -0.590103 1.064700 
									CHANNELS 3 Zrotation Xrotation Yrotation
									End Site
									{
										OFFSET -2.485470 -0.328903 0.837420 
									}
								}
							}
							JOINT rRing1
							{
								OFFSET -8.828220 0.546677 1.516780 
								CHANNELS 3 Zrotation Xrotation Yrotation
								JOINT rRing2
								{
									OFFSET -2.609340 -0.819778 -0.019849 
									CHANNELS 3 Zrotation Xrotation Yrotation
									End Site
									{
										OFFSET -2.338420 -0.294052 0.168128 
									}
								}
							}
							JOINT rPinky1
							{
								OFFSET -8.272020 -0.047791 -0.458400 
								CHANNELS 3 Zrotation Xrotation Yrotation
								JOINT rPinky2
								{
									OFFSET -1.827340 -0.647385 -0.700984 
									CHANNELS 3 Zrotation Xrotation Yrotation
									End Site
									{
										OFFSET -1.692250 -0.517670 -0.607171 
									}
								}
							}
						}
					}
				}
			}
			JOINT lCollar
			{
				OFFSET 2.682240 19.263399 -4.876800 
				CHANNELS 3 Zrotation Xrotation Yrotation
				JOINT lShldr
				{
					OFFSET 8.778240 -1.950730 1.463040 
					CHANNELS 3 Zrotation Xrotation Yrotation
					JOINT lForeArm
					{
						OFFSET 28.174200 -1.711500 0.487680 
						CHANNELS 3 Zrotation Xrotation Yrotation
						JOINT lHand
						{
							OFFSET 22.587900 0.773209 7.071360 
							CHANNELS 3 Zrotation Xrotation Yrotation
							JOINT lThumb1
							{
								OFFSET 1.219200 -0.487915 3.413760 
								CHANNELS 3 Zrotation Xrotation Yrotation
								JOINT lThumb2
								{
									OFFSET 3.370350 -0.524490 3.413760 
									CHANNELS 3 Zrotation Xrotation Yrotation
									End Site
									{
										OFFSET 1.782710 -1.182140 1.430490 
									}
								}
							}
							JOINT lIndex1
							{
								OFFSET 7.759470 0.938293 5.608320 
								CHANNELS 3 Zrotation Xrotation Yrotation
								JOINT lIndex2
								{
									OFFSET 2.540570 -0.884171 1.565380 
									CHANNELS 3 Zrotation Xrotation Yrotation
									End Site
									{
										OFFSET 1.625190 -0.234802 1.165020 
									}
								}
							}
							JOINT lMid1
							{
								OFFSET 8.247140 1.182130 3.413760 
								CHANNELS 3 Zrotation Xrotation Yrotation
								JOINT lMid2
								{
									OFFSET 3.101650 -0.590103 1.064700 
									CHANNELS 3 Zrotation Xrotation Yrotation
									End Site
									{
										OFFSET 2.485470 -0.328903 0.837420 
									}
								}
							}
							JOINT lRing1
							{
								OFFSET 8.828220 0.546677 1.516780 
								CHANNELS 3 Zrotation Xrotation Yrotation
								JOINT lRing2
								{
									OFFSET 2.609340 -0.819778 -0.019849 
									CHANNELS 3 Zrotation Xrotation Yrotation
									End Site
									{
										OFFSET 2.338420 -0.294052 0.168128 
									}
								}
							}
							JOINT lPinky1
							{
								OFFSET 8.272020 -0.047791 -0.458400 
								CHANNELS 3 Zrotation Xrotation Yrotation
								JOINT lPinky2
								{
									OFFSET 1.827340 -0.647385 -0.700984 
									CHANNELS 3 Zrotation Xrotation Yrotation
									End Site
									{
										OFFSET 1.692250 -0.517670 -0.607171 
									}
								}
							}
						}
					}
				}
			}
		}
	}
	JOINT rButtock
	{
		OFFSET -8.778240 4.350840 1.219200 
		CHANNELS 3 Zrotation Xrotation Yrotation
		JOINT rThigh
		{
			OFFSET 0.000000 -1.706870 -2.194560 
			CHANNELS 3 Zrotation Xrotation Yrotation
			JOINT rShin
			{
				OFFSET 0.000000 -36.819901 0.731520 
				CHANNELS 3 Zrotation Xrotation Yrotation
				JOINT rFoot
				{
					OFFSET 0.731520 -45.110401 -5.120640 
					CHANNELS 3 Zrotation Xrotation Yrotation
					End Site
					{
						OFFSET -1.122100 -3.699640 12.103000 
					}
				}
			}
		}
	}
	JOINT lButtock
	{
		OFFSET 8.778240 4.350840 1.219200 
		CHANNELS 3 Zrotation Xrotation Yrotation
		JOINT lThigh
		{
			OFFSET 0.000000 -1.706870 -2.194560 
			CHANNELS 3 Zrotation Xrotation Yrotation
			JOINT lShin
			{
				OFFSET 0.000000 -36.819901 0.731520 
				CHANNELS 3 Zrotation Xrotation Yrotation
				JOINT lFoot
				{
					OFFSET -0.731520 -45.110401 -5.120640 
					CHANNELS 3 Zrotation Xrotation Yrotation
					End Site
					{
						OFFSET 1.122100 -3.699640 12.103000 
					}
				}
			}
		}
	}
}
MOTION
Frames: 6
Frame Time: 0.008333
47.922699 82.938301 -179.546005 -7.872000 -52.849400 20.074100 -2.080420 10.657900 -2.559660 7.020010 -3.361250 -0.640815 -10.821500 2.683950 3.684050 11.996900 0.077605 9.338260 -0.000000 -0.000000 0.000000 71.101303 10.079600 -0.517321 -19.453600 -12.339700 37.369499 -0.447560 -18.670799 -2.722040 0.000000 -0.000000 0.000000 0.000000 -0.000000 0.000000 0.000000 -0.000000 0.000000 7.730910 5.474880 0.417314 0.000000 -0.000000 0.000000 2.905540 0.965183 0.102902 0.000000 -0.000000 0.000000 10.278600 0.731801 0.025912 0.000000 -0.000000 0.000000 2.221670 -0.733487 -0.208920 -0.000000 -0.000000 0.000000 -78.321800 -0.551430 -9.871090 13.426300 -6.500720 -24.406799 0.042866 5.898720 -0.831982 -0.000000 0.000000 0.000000 -0.000000 0.000000 0.000000 -0.000000 0.000000 0.000000 -7.730910 5.474880 -0.417314 -0.000000 0.000000 0.000000 -2.905540 0.965183 -0.102902 -0.000000 0.000000 0.000000 -10.278600 0.731801 -0.025912 -0.000000 0.000000 0.000000 -2.221670 -0.733487 0.208920 -0.000000 0.000000 -0.000000 -6.420750 -25.748800 8.123120 -0.819930 55.379700 1.214450 -1.265570 21.728399 3.331970 0.000000 0.000000 0.000000 -4.377370 -36.112801 -4.276020 0.523680 47.989498 -0.948302 1.487970 -17.414000 3.322790 
47.646702 82.903198 -178.615005 -7.802700 -53.242599 19.977400 -2.610180 10.786900 -2.440510 6.941720 -3.353970 -0.625920 -10.407700 2.397950 3.655960 11.808200 0.230852 9.229040 -0.000000 -0.000000 0.000000 71.462799 9.888910 -0.553275 -19.484100 -12.376400 37.442001 -0.449324 -18.705500 -2.727490 0.000000 -0.000000 0.000000 0.000000 -0.000000 0.000000 0.000000 -0.000000 0.000000 7.730910 5.474880 0.417314 0.000000 -0.000000 0.000000 2.905540 0.965183 0.102902 0.000000 -0.000000 0.000000 10.278600 0.731801 0.025912 0.000000 -0.000000 0.000000 2.221670 -0.733487 -0.208920 -0.000000 -0.000000 0.000000 -77.759804 -0.299785 -10.262300 13.386400 -6.470070 -24.327101 0.042022 5.840380 -0.823696 -0.000000 0.000000 0.000000 -0.000000 0.000000 0.000000 -0.000000 0.000000 0.000000 -7.730910 5.474880 -0.417314 -0.000000 0.000000 0.000000 -2.905540 0.965183 -0.102902 -0.000000 0.000000 0.000000 -10.278600 0.731801 -0.025912 -0.000000 0.000000 0.000000 -2.221670 -0.733487 0.208920 -0.000000 0.000000 -0.000000 -6.762040 -26.843901 8.221420 -0.903404 56.895599 1.271590 -0.987930 22.002899 2.212430 0.000000 0.000000 0.000000 -4.992320 -35.689899 -4.267520 0.521244 47.896198 -0.938717 1.226120 -17.844700 2.611060 
47.514301 82.838600 -177.830002 -7.290100 -53.110500 19.767500 -3.077520 10.940800 -2.330080 6.839090 -3.311640 -0.615183 -9.973510 2.068410 3.628570 11.579100 0.378306 9.122690 -0.000000 -0.000000 0.000000 71.820602 9.738200 -0.534332 -19.511000 -12.408900 37.505798 -0.452862 -18.774900 -2.738390 0.000000 -0.000000 0.000000 0.000000 -0.000000 0.000000 0.000000 -0.000000 0.000000 7.730910 5.474880 0.417314 0.000000 -0.000000 0.000000 2.905540 0.965183 0.102902 0.000000 -0.000000 0.000000 10.278600 0.731801 0.025912 0.000000 -0.000000 0.000000 2.221670 -0.733487 -0.208920 -0.000000 -0.000000 0.000000 -77.095100 0.007328 -10.785400 13.291600 -6.397250 -24.138399 0.039257 5.649120 -0.796536 -0.000000 0.000000 0.000000 -0.000000 0.000000 0.000000 -0.000000 0.000000 0.000000 -7.730910 5.474880 -0.417314 -0.000000 0.000000 0.000000 -2.905540 0.965183 -0.102902 -0.000000 0.000000 0.000000 -10.278600 0.731801 -0.025912 -0.000000 0.000000 0.000000 -2.221670 -0.733487 0.208920 -0.000000 0.000000 -0.000000 -7.039540 -27.933201 8.308090 -0.999142 58.473701 1.334580 -0.574171 21.641300 0.612072 0.000000 0.000000 0.000000 -5.563610 -35.266998 -4.242320 0.519339 47.819801 -0.929751 0.873635 -18.432400 1.679060 
47.340099 82.784500 -177.016006 -6.872100 -53.150600 19.587400 -3.451880 11.082700 -2.260250 6.722080 -3.266490 -0.613762 -9.584980 1.801740 3.604210 11.394600 0.428465 9.032100 -0.000000 0.000000 0.000000 72.178200 9.605310 -0.501931 -19.530300 -12.432200 37.551601 -0.455129 -18.819401 -2.745380 0.000000 -0.000000 0.000000 0.000000 -0.000000 0.000000 0.000000 -0.000000 0.000000 7.730910 5.474880 0.417314 0.000000 -0.000000 0.000000 2.905540 0.965183 0.102902 0.000000 -0.000000 0.000000 10.278600 0.731801 0.025912 0.000000 -0.000000 0.000000 2.221670 -0.733487 -0.208920 -0.000000 0.000000 0.000000 -76.412003 0.285005 -11.355200 13.181500 -6.312850 -23.920500 0.036575 5.451850 -0.768550 -0.000000 0.000000 0.000000 -0.000000 0.000000 0.000000 -0.000000 0.000000 0.000000 -7.730910 5.474880 -0.417314 -0.000000 0.000000 0.000000 -2.905540 0.965183 -0.102902 -0.000000 0.000000 0.000000 -10.278600 0.731801 -0.025912 -0.000000 0.000000 0.000000 -2.221670 -0.733487 0.208920 -0.000000 0.000000 -0.000000 -7.238390 -29.065100 8.321200 -1.103310 60.049900 1.406180 -0.162840 20.858801 -1.125420 0.000000 0.000000 0.000000 -6.049040 -34.890598 -4.160050 0.518092 47.764702 -0.921929 0.486519 -18.989300 0.695153 
47.127998 82.726898 -176.207993 -6.853800 -53.198002 19.691500 -3.702190 11.175700 -2.262980 6.600670 -3.250760 -0.626811 -9.307970 1.704360 3.585090 11.338900 0.289749 8.970160 -0.000000 0.000000 0.000000 72.538597 9.468160 -0.497439 -19.538000 -12.441600 37.569901 -0.453030 -18.779400 -2.739080 0.000000 -0.000000 0.000000 0.000000 -0.000000 0.000000 0.000000 -0.000000 0.000000 7.730910 5.474880 0.417314 0.000000 -0.000000 0.000000 2.905540 0.965183 0.102902 0.000000 -0.000000 0.000000 10.278600 0.731801 0.025912 0.000000 -0.000000 0.000000 2.221670 -0.733487 -0.208920 -0.000000 0.000000 0.000000 -75.799599 0.449263 -11.885900 13.096500 -6.247910 -23.753201 0.035572 5.375510 -0.757726 -0.000000 0.000000 0.000000 -0.000000 0.000000 0.000000 -0.000000 0.000000 0.000000 -7.730910 5.474880 -0.417314 -0.000000 0.000000 0.000000 -2.905540 0.965183 -0.102902 -0.000000 0.000000 0.000000 -10.278600 0.731801 -0.025912 -0.000000 0.000000 0.000000 -2.221670 -0.733487 0.208920 -0.000000 0.000000 -0.000000 -7.349560 -30.288601 8.196530 -1.212050 61.560398 1.488960 0.140861 19.884501 -2.669520 0.000000 0.000000 0.000000 -6.407120 -34.606800 -3.980650 0.517631 47.735401 -0.915774 0.139996 -19.330500 -0.166327 
46.964100 82.664299 -175.406006 -6.845200 -52.837399 19.881800 -3.770600 11.183100 -2.385540 6.457560 -3.273440 -0.665561 -9.193690 1.873660 3.575340 11.496100 -0.166545 8.956340 -0.000000 0.000000 0.000000 72.930199 9.296050 -0.520904 -19.527000 -12.428300 37.543598 -0.444345 -18.609699 -2.712420 0.000000 -0.000000 0.000000 0.000000 -0.000000 0.000000 0.000000 -0.000000 0.000000 7.730910 5.474880 0.417314 0.000000 -0.000000 0.000000 2.905540 0.965183 0.102902 0.000000 -0.000000 0.000000 10.278600 0.731801 0.025912 0.000000 -0.000000 0.000000 2.221670 -0.733487 -0.208920 -0.000000 0.000000 0.000000 -75.273903 0.459600 -12.362300 13.047800 -6.210960 -23.657400 0.036757 5.466990 -0.770695 -0.000000 0.000000 0.000000 -0.000000 0.000000 0.000000 -0.000000 0.000000 0.000000 -7.730910 5.474880 -0.417314 -0.000000 0.000000 0.000000 -2.905540 0.965183 -0.102902 -0.000000 0.000000 0.000000 -10.278600 0.731801 -0.025912 -0.000000 0.000000 0.000000 -2.221670 -0.733487 0.208920 -0.000000 0.000000 -0.000000 -7.377150 -31.658600 7.817140 -1.329720 63.030499 1.588380 0.319367 18.643101 -4.007030 0.000000 0.000000 0.000000 -6.533340 -34.503201 -3.584850 0.519153 47.763500 -0.911112 -0.181804 -19.339199 -0.980995 
